<?xml version="1.0" encoding="utf-8"?>
<svg xmlns="http://www.w3.org/2000/svg" id="Layer_2" viewBox="0 0 793.77 150">
  <defs>
    <style>.cls-1{fill:#0088e1;}.cls-2{fill:#ff2700;}.cls-3{fill:#fff;}.cls-4{fill:#ffb700;}.cls-5{fill:#55c200;}.cls-6{fill:#58595b;}</style>
  </defs>
  <g id="Layer_1-2">
    <path class="cls-1" d="m180.11,37.35h42.62c9.67,0,12.98.63,18.32,3.82,7.89,4.58,10.81,12.21,10.81,28.5,0,12.34-1.53,18.7-5.6,23.66-2.67,3.31-7.89,5.85-13.23,6.62q-1.53.13-12.85.38l-3.69.13h-13.61v21.76h-22.77V37.35Zm37.02,43.51c10.18,0,11.45-1.4,11.45-12.34,0-7.25-1.02-10.18-4.07-11.58-1.91-.76-2.55-.89-7.25-.89h-14.38v24.81h14.25Z"/>
    <path class="cls-1" d="m277.07,51.73h-19.34v-14.38h19.34v14.38Zm0,70.48h-19.34v-59.42h19.34v59.42Z"/>
    <path class="cls-1" d="m301.62,62.8l-.76,11.58h.38c3.05-9.16,7.38-12.21,17.3-12.21,14.12,0,20.48,5.6,20.48,18.07v41.99h-19.34v-33.97c0-8.91-1.4-10.94-7.51-10.94-7,0-10.56,3.44-10.56,10.05v34.86h-19.34v-59.42h19.34Z"/>
    <path class="cls-1" d="m402.26,120.94c0,21.5-6.87,27.74-30.41,27.74-12.85,0-19.72-1.91-23.41-6.36-2.42-2.93-2.93-5.47-3.18-14.76h18.45c0,5.85,1.4,7,8.4,7,8.4,0,10.81-1.91,10.81-8.4v-14.5h-.38c-2.67,7.25-7.76,10.43-16.67,10.43-8.14,0-15.52-3.05-18.83-7.63-2.8-4.07-3.82-10.56-3.82-23.67s1.78-19.85,6.49-24.17c3.31-2.93,8.65-4.45,15.52-4.45,10.69,0,15.14,2.93,18.19,11.96h.38l-.89-11.32h19.34v58.14Zm-19.59-26.97c0-10.81-.13-11.71-2.16-14.38-1.27-1.78-3.56-2.55-8.01-2.55-8.78,0-9.8,1.65-9.8,15.4,0,12.59,1.4,14.76,9.67,14.76s10.31-2.29,10.31-11.32v-1.91Z"/>
    <path class="cls-6" d="m407.87,37.35h42.62c9.67,0,12.98.63,18.32,3.82,7.89,4.58,10.81,12.21,10.81,28.5,0,12.34-1.53,18.7-5.6,23.66-2.67,3.31-7.89,5.85-13.23,6.62q-1.53.13-12.85.38l-3.69.13h-13.61v21.76h-22.77V37.35Zm37.02,43.51c10.18,0,11.45-1.4,11.45-12.34,0-7.25-1.02-10.18-4.07-11.58-1.91-.76-2.55-.89-7.25-.89h-14.38v24.81h14.25Z"/>
    <path class="cls-6" d="m503.93,122.21h-19.34V37.35h19.34v84.86Z"/>
    <path class="cls-6" d="m563.22,67.76c4.2,4.33,5.73,10.18,5.73,22.14,0,27.48-4.96,32.95-29.77,32.95-14.76,0-22.39-2.67-26.21-9.16-2.8-4.83-3.31-8.65-3.31-23.15,0-13.23,1.53-18.7,6.24-23.03,4.71-4.2,10.05-5.34,24.55-5.34,13.11,0,18.58,1.4,22.77,5.6Zm-34.1,23.79c0,14.25,1.53,16.79,10.18,16.79s10.18-2.55,10.18-17.3c0-12.09-1.65-14.5-10.05-14.5s-10.31,2.55-10.31,15.01Z"/>
    <path class="cls-6" d="m618.95,76.79h-22.52v24.05c0,6.36.76,7.89,4.33,7.89,4.45,0,5.34-1.78,5.34-10.94h15.52l-.13,2.42c0,9.03-.25,10.69-1.4,13.61-2.8,6.74-8.27,9.03-22.39,9.03-10.18,0-15.39-2.04-18.57-7.13-1.53-2.55-2.04-5.09-2.04-11.07v-27.86h-7.25v-13.99h7.25v-12.47h19.34v12.47h22.52v13.99Z"/>
    <path class="cls-6" d="m668.06,76.79h-22.52v24.05c0,6.36.76,7.89,4.33,7.89,4.45,0,5.34-1.78,5.34-10.94h15.52l-.13,2.42c0,9.03-.25,10.69-1.4,13.61-2.8,6.74-8.27,9.03-22.39,9.03-10.18,0-15.39-2.04-18.57-7.13-1.53-2.55-2.04-5.09-2.04-11.07v-27.86h-7.25v-13.99h7.25v-12.47h19.34v12.47h22.52v13.99Z"/>
    <path class="cls-6" d="m734.22,102.36v1.15c0,5.09-1.15,9.41-3.43,12.47-3.56,4.96-9.92,6.87-22.39,6.87-13.87,0-20.87-1.78-25.57-6.23-4.33-4.33-5.73-10.69-5.73-25.57,0-12.85,1.65-19.09,6.24-23.16,4.45-4.07,11.07-5.73,22.77-5.73,21.75,0,28.12,6.36,28.12,28.12v5.6h-38.04c-.13,1.02-.13,2.04-.13,2.42,0,8.53,2.29,11.07,10.18,11.07,7,0,9.03-1.53,9.03-7h18.96Zm-18.58-17.18c-.13-.89-.13-1.65-.13-1.91,0-3.05-.25-3.82-1.02-4.96-1.4-1.91-3.31-2.42-9.03-2.42-5.34,0-7.25.76-8.4,3.31-.51,1.27-.64,1.53-.76,5.98h19.34Z"/>
    <path class="cls-6" d="m763.87,62.8l-.89,9.54h.38c3.43-7.51,7.25-10.18,15.01-10.18s12.47,3.18,14.25,9.92c.89,3.05.89,3.31,1.15,16.67h-17.69c.13-.89.13-1.78.13-2.03,0-7.89-1.02-9.8-5.21-9.8-3.18,0-5.47,1.65-6.62,4.71-.51,1.53-.51,2.16-.51,6.23v34.35h-19.34v-59.42h19.34Z"/>
    <rect class="cls-1" x="0" width="150" height="150" rx="15" ry="15"/>
    <polygon class="cls-5" points="41.06 68.84 0 68.84 0 84.74 33.53 84.74 41.06 68.84"/>
    <polygon class="cls-4" points="49.83 50.33 0 50.33 0 66.24 42.29 66.24 49.83 50.33"/>
    <polygon class="cls-2" points="58.59 31.84 0 31.84 0 47.74 51.06 47.74 58.59 31.84"/>
    <path class="cls-3" d="m127.81,58.29c0,16.11-13.06,29.17-29.17,29.17-16.11,0-29.16-13.06-29.16-29.17,0-16.11,13.06-29.17,29.16-29.17,16.11,0,29.17,13.06,29.17,29.17Z"/>
    <path class="cls-3" d="m48.98,150l15.63-32.93c5.56,2.19,11.6,3.41,17.94,3.41,13.74,0,26.14-5.68,35.02-14.8.21-.14.39-.33.52-.55.15-.25.24-.54.24-.85,0-.42-.15-.8-.4-1.09-.31-.36-.76-.58-1.27-.58-.15,0-.28.02-.42.06-.13.05-.25.1-.38.15-1.16.45-2.35.87-3.55,1.24-4.33,1.29-8.91,2-13.66,2-15.47,0-29.21-7.36-37.93-18.76-.65-.58-1.51-.95-2.45-.95-1.36,0-2.54.74-3.18,1.84l-.28.59-7.77,16.4-.14.29-21.14,44.54h23.24Z"/>
  </g>
</svg>